<?xml version="1.0" encoding="UTF-8"?>
<svg version="1.1" xmlns="http://www.w3.org/2000/svg" width="256" height="256">
<path d="M0 0 C15.84 0 31.68 0 48 0 C48 5.28 48 10.56 48 16 C53.28 16 58.56 16 64 16 C64 21.28 64 26.56 64 32 C69.28 32 74.56 32 80 32 C80 37.28 80 42.56 80 48 C101.12 48 122.24 48 144 48 C144 53.28 144 58.56 144 64 C149.28 64 154.56 64 160 64 C160 69.28 160 74.56 160 80 C165.28 80 170.56 80 176 80 C176 85.28 176 90.56 176 96 C181.28 96 186.56 96 192 96 C192 101.28 192 106.56 192 112 C197.28 112 202.56 112 208 112 C208 133.12 208 154.24 208 176 C202.72 176 197.44 176 192 176 C192 181.28 192 186.56 192 192 C186.72 192 181.44 192 176 192 C176 207.84 176 223.68 176 240 C181.28 240 186.56 240 192 240 C192 245.28 192 250.56 192 256 C112.8 256 33.6 256 -48 256 C-48 245.44 -48 234.88 -48 224 C-42.72 224 -37.44 224 -32 224 C-32 213.44 -32 202.88 -32 192 C-37.28 192 -42.56 192 -48 192 C-48 170.88 -48 149.76 -48 128 C-42.72 128 -37.44 128 -32 128 C-32 117.44 -32 106.88 -32 96 C-26.72 96 -21.44 96 -16 96 C-16 90.72 -16 85.44 -16 80 C-10.72 80 -5.44 80 0 80 C0 74.72 0 69.44 0 64 C5.28 64 10.56 64 16 64 C16 58.72 16 53.44 16 48 C10.72 48 5.44 48 0 48 C0 42.72 0 37.44 0 32 C-5.28 32 -10.56 32 -16 32 C-16 26.72 -16 21.44 -16 16 C-10.72 16 -5.44 16 0 16 C0 10.72 0 5.44 0 0 Z " fill="#C73624" transform="translate(48,0)"/>
<path d="M0 0 C15.84 0 31.68 0 48 0 C48 5.28 48 10.56 48 16 C53.28 16 58.56 16 64 16 C64 21.28 64 26.56 64 32 C69.28 32 74.56 32 80 32 C80 37.28 80 42.56 80 48 C101.12 48 122.24 48 144 48 C144 53.28 144 58.56 144 64 C149.28 64 154.56 64 160 64 C160 69.28 160 74.56 160 80 C165.28 80 170.56 80 176 80 C176 85.28 176 90.56 176 96 C181.28 96 186.56 96 192 96 C192 101.28 192 106.56 192 112 C197.28 112 202.56 112 208 112 C208 133.12 208 154.24 208 176 C202.72 176 197.44 176 192 176 C192 181.28 192 186.56 192 192 C186.72 192 181.44 192 176 192 C176 207.84 176 223.68 176 240 C181.28 240 186.56 240 192 240 C192 245.28 192 250.56 192 256 C144.48 256 96.96 256 48 256 C48 250.72 48 245.44 48 240 C42.72 240 37.44 240 32 240 C32 234.72 32 229.44 32 224 C26.72 224 21.44 224 16 224 C16 218.72 16 213.44 16 208 C21.28 208 26.56 208 32 208 C32 202.72 32 197.44 32 192 C37.28 192 42.56 192 48 192 C48 197.28 48 202.56 48 208 C53.28 208 58.56 208 64 208 C64 213.28 64 218.56 64 224 C69.28 224 74.56 224 80 224 C80 229.28 80 234.56 80 240 C85.28 240 90.56 240 96 240 C96 234.72 96 229.44 96 224 C101.28 224 106.56 224 112 224 C112 218.72 112 213.44 112 208 C117.28 208 122.56 208 128 208 C128 202.72 128 197.44 128 192 C133.28 192 138.56 192 144 192 C144 176.16 144 160.32 144 144 C138.72 144 133.44 144 128 144 C128 154.56 128 165.12 128 176 C122.72 176 117.44 176 112 176 C112 160.16 112 144.32 112 128 C117.28 128 122.56 128 128 128 C128 117.44 128 106.88 128 96 C122.72 96 117.44 96 112 96 C112 90.72 112 85.44 112 80 C85.6 80 59.2 80 32 80 C32 74.72 32 69.44 32 64 C26.72 64 21.44 64 16 64 C16 58.72 16 53.44 16 48 C10.72 48 5.44 48 0 48 C0 42.72 0 37.44 0 32 C-5.28 32 -10.56 32 -16 32 C-16 26.72 -16 21.44 -16 16 C-10.72 16 -5.44 16 0 16 C0 10.72 0 5.44 0 0 Z " fill="#C73624" transform="translate(48,0)"/>
<path d="M0 0 C5.28 0 10.56 0 16 0 C16 5.28 16 10.56 16 16 C21.28 16 26.56 16 32 16 C32 26.56 32 37.12 32 48 C37.28 48 42.56 48 48 48 C48 53.28 48 58.56 48 64 C42.72 64 37.44 64 32 64 C32 79.84 32 95.68 32 112 C37.28 112 42.56 112 48 112 C48 117.28 48 122.56 48 128 C0.48 128 -47.04 128 -96 128 C-96 122.72 -96 117.44 -96 112 C-101.28 112 -106.56 112 -112 112 C-112 106.72 -112 101.44 -112 96 C-117.28 96 -122.56 96 -128 96 C-128 90.72 -128 85.44 -128 80 C-122.72 80 -117.44 80 -112 80 C-112 74.72 -112 69.44 -112 64 C-106.72 64 -101.44 64 -96 64 C-96 69.28 -96 74.56 -96 80 C-90.72 80 -85.44 80 -80 80 C-80 85.28 -80 90.56 -80 96 C-74.72 96 -69.44 96 -64 96 C-64 101.28 -64 106.56 -64 112 C-58.72 112 -53.44 112 -48 112 C-48 106.72 -48 101.44 -48 96 C-42.72 96 -37.44 96 -32 96 C-32 90.72 -32 85.44 -32 80 C-26.72 80 -21.44 80 -16 80 C-16 74.72 -16 69.44 -16 64 C-10.72 64 -5.44 64 0 64 C0 42.88 0 21.76 0 0 Z " fill="#8F0414" transform="translate(192,128)"/>
<path d="M0 0 C10.56 0 21.12 0 32 0 C32 10.56 32 21.12 32 32 C37.28 32 42.56 32 48 32 C48 21.44 48 10.88 48 0 C58.56 0 69.12 0 80 0 C80 10.56 80 21.12 80 32 C85.28 32 90.56 32 96 32 C96 21.44 96 10.88 96 0 C101.28 0 106.56 0 112 0 C112 15.84 112 31.68 112 48 C106.72 48 101.44 48 96 48 C96 53.28 96 58.56 96 64 C90.72 64 85.44 64 80 64 C80 69.28 80 74.56 80 80 C74.72 80 69.44 80 64 80 C64 85.28 64 90.56 64 96 C58.72 96 53.44 96 48 96 C48 90.72 48 85.44 48 80 C42.72 80 37.44 80 32 80 C32 74.72 32 69.44 32 64 C26.72 64 21.44 64 16 64 C16 58.72 16 53.44 16 48 C10.72 48 5.44 48 0 48 C0 32.16 0 16.32 0 0 Z " fill="#F9BAB6" transform="translate(80,144)"/>
<path d="M0 0 C15.84 0 31.68 0 48 0 C48 5.28 48 10.56 48 16 C53.28 16 58.56 16 64 16 C64 21.28 64 26.56 64 32 C69.28 32 74.56 32 80 32 C80 37.28 80 42.56 80 48 C101.12 48 122.24 48 144 48 C144 53.28 144 58.56 144 64 C128.16 64 112.32 64 96 64 C96 69.28 96 74.56 96 80 C74.88 80 53.76 80 32 80 C32 74.72 32 69.44 32 64 C26.72 64 21.44 64 16 64 C16 58.72 16 53.44 16 48 C10.72 48 5.44 48 0 48 C0 42.72 0 37.44 0 32 C-5.28 32 -10.56 32 -16 32 C-16 26.72 -16 21.44 -16 16 C-10.72 16 -5.44 16 0 16 C0 10.72 0 5.44 0 0 Z " fill="#8F0414" transform="translate(48,0)"/>
<path d="M0 0 C10.56 0 21.12 0 32 0 C32 5.28 32 10.56 32 16 C37.28 16 42.56 16 48 16 C48 26.56 48 37.12 48 48 C42.72 48 37.44 48 32 48 C32 69.12 32 90.24 32 112 C26.72 112 21.44 112 16 112 C16 106.72 16 101.44 16 96 C5.44 96 -5.12 96 -16 96 C-16 74.88 -16 53.76 -16 32 C-10.72 32 -5.44 32 0 32 C0 21.44 0 10.88 0 0 Z " fill="#E55E39" transform="translate(16,96)"/>
<path d="M0 0 C5.28 0 10.56 0 16 0 C16 5.28 16 10.56 16 16 C21.28 16 26.56 16 32 16 C32 21.28 32 26.56 32 32 C37.28 32 42.56 32 48 32 C48 37.28 48 42.56 48 48 C53.28 48 58.56 48 64 48 C64 42.72 64 37.44 64 32 C69.28 32 74.56 32 80 32 C80 26.72 80 21.44 80 16 C85.28 16 90.56 16 96 16 C96 21.28 96 26.56 96 32 C101.28 32 106.56 32 112 32 C112 42.56 112 53.12 112 64 C80.32 64 48.64 64 16 64 C16 58.72 16 53.44 16 48 C10.72 48 5.44 48 0 48 C0 42.72 0 37.44 0 32 C-5.28 32 -10.56 32 -16 32 C-16 26.72 -16 21.44 -16 16 C-10.72 16 -5.44 16 0 16 C0 10.72 0 5.44 0 0 Z " fill="#5F052B" transform="translate(80,192)"/>
<path d="M0 0 C26.4 0 52.8 0 80 0 C80 5.28 80 10.56 80 16 C85.28 16 90.56 16 96 16 C96 26.56 96 37.12 96 48 C90.72 48 85.44 48 80 48 C80 53.28 80 58.56 80 64 C69.44 64 58.88 64 48 64 C48 58.72 48 53.44 48 48 C42.72 48 37.44 48 32 48 C32 42.72 32 37.44 32 32 C26.72 32 21.44 32 16 32 C16 26.72 16 21.44 16 16 C10.72 16 5.44 16 0 16 C0 10.72 0 5.44 0 0 Z " fill="#E55E39" transform="translate(80,80)"/>
<path d="M0 0 C26.4 0 52.8 0 80 0 C80 5.28 80 10.56 80 16 C64.16 16 48.32 16 32 16 C32 21.28 32 26.56 32 32 C10.88 32 -10.24 32 -32 32 C-32 26.72 -32 21.44 -32 16 C-21.44 16 -10.88 16 0 16 C0 10.72 0 5.44 0 0 Z " fill="#8F0414" transform="translate(112,48)"/>
<path d="M0 0 C5.28 0 10.56 0 16 0 C16 5.28 16 10.56 16 16 C21.28 16 26.56 16 32 16 C32 31.84 32 47.68 32 64 C26.72 64 21.44 64 16 64 C16 58.72 16 53.44 16 48 C10.72 48 5.44 48 0 48 C0 42.72 0 37.44 0 32 C-5.28 32 -10.56 32 -16 32 C-16 26.72 -16 21.44 -16 16 C-10.72 16 -5.44 16 0 16 C0 10.72 0 5.44 0 0 Z " fill="#3D0721" transform="translate(80,192)"/>
<path d="M0 0 C21.12 0 42.24 0 64 0 C64 5.28 64 10.56 64 16 C58.72 16 53.44 16 48 16 C48 21.28 48 26.56 48 32 C37.44 32 26.88 32 16 32 C16 26.72 16 21.44 16 16 C10.72 16 5.44 16 0 16 C0 10.72 0 5.44 0 0 Z " fill="#E5837D" transform="translate(112,112)"/>
<path d="M0 0 C15.84 0 31.68 0 48 0 C48 5.28 48 10.56 48 16 C53.28 16 58.56 16 64 16 C64 21.28 64 26.56 64 32 C48.16 32 32.32 32 16 32 C16 26.72 16 21.44 16 16 C10.72 16 5.44 16 0 16 C0 10.72 0 5.44 0 0 Z " fill="#000000" transform="translate(48,32)"/>
<path d="M0 0 C5.28 0 10.56 0 16 0 C16 5.28 16 10.56 16 16 C21.28 16 26.56 16 32 16 C32 10.72 32 5.44 32 0 C37.28 0 42.56 0 48 0 C48 10.56 48 21.12 48 32 C32.16 32 16.32 32 0 32 C0 21.44 0 10.88 0 0 Z " fill="#5B5942" transform="translate(112,224)"/>
<path d="M0 0 C10.56 0 21.12 0 32 0 C32 5.28 32 10.56 32 16 C26.72 16 21.44 16 16 16 C16 31.84 16 47.68 16 64 C10.72 64 5.44 64 0 64 C0 42.88 0 21.76 0 0 Z " fill="#000000" transform="translate(208,176)"/>
<path d="M0 0 C5.28 0 10.56 0 16 0 C16 5.28 16 10.56 16 16 C21.28 16 26.56 16 32 16 C32 21.28 32 26.56 32 32 C16.16 32 0.32 32 -16 32 C-16 26.72 -16 21.44 -16 16 C-10.72 16 -5.44 16 0 16 C0 10.72 0 5.44 0 0 Z " fill="#E5837D" transform="translate(64,224)"/>
<path d="M0 0 C15.84 0 31.68 0 48 0 C48 5.28 48 10.56 48 16 C42.72 16 37.44 16 32 16 C32 21.28 32 26.56 32 32 C26.72 32 21.44 32 16 32 C16 26.72 16 21.44 16 16 C10.72 16 5.44 16 0 16 C0 10.72 0 5.44 0 0 Z " fill="#E5837D" transform="translate(112,208)"/>
<path d="M0 0 C10.56 0 21.12 0 32 0 C32 5.28 32 10.56 32 16 C26.72 16 21.44 16 16 16 C16 26.56 16 37.12 16 48 C10.72 48 5.44 48 0 48 C0 32.16 0 16.32 0 0 Z " fill="#3D0721" transform="translate(160,128)"/>
<path d="M0 0 C10.56 0 21.12 0 32 0 C32 15.84 32 31.68 32 48 C26.72 48 21.44 48 16 48 C16 37.44 16 26.88 16 16 C10.72 16 5.44 16 0 16 C0 10.72 0 5.44 0 0 Z " fill="#3D0721" transform="translate(96,128)"/>
<path d="M0 0 C5.28 0 10.56 0 16 0 C16 21.12 16 42.24 16 64 C10.72 64 5.44 64 0 64 C0 42.88 0 21.76 0 0 Z " fill="#000000" transform="translate(0,128)"/>
<path d="M0 0 C5.28 0 10.56 0 16 0 C16 21.12 16 42.24 16 64 C10.72 64 5.44 64 0 64 C0 42.88 0 21.76 0 0 Z " fill="#000000" transform="translate(240,112)"/>
<path d="M0 0 C21.12 0 42.24 0 64 0 C64 5.28 64 10.56 64 16 C42.88 16 21.76 16 0 16 C0 10.72 0 5.44 0 0 Z " fill="#000000" transform="translate(128,48)"/>
<path d="M0 0 C10.56 0 21.12 0 32 0 C32 10.56 32 21.12 32 32 C26.72 32 21.44 32 16 32 C16 26.72 16 21.44 16 16 C10.72 16 5.44 16 0 16 C0 10.72 0 5.44 0 0 Z " fill="#5F052B" transform="translate(80,224)"/>
<path d="M0 0 C10.56 0 21.12 0 32 0 C32 10.56 32 21.12 32 32 C26.72 32 21.44 32 16 32 C16 26.72 16 21.44 16 16 C10.72 16 5.44 16 0 16 C0 10.72 0 5.44 0 0 Z " fill="#FBD5D9" transform="translate(80,144)"/>
<path d="M0 0 C15.84 0 31.68 0 48 0 C48 5.28 48 10.56 48 16 C32.16 16 16.32 16 0 16 C0 10.72 0 5.44 0 0 Z " fill="#000000" transform="translate(48,0)"/>
<path d="M0 0 C5.28 0 10.56 0 16 0 C16 10.56 16 21.12 16 32 C10.72 32 5.44 32 0 32 C0 21.44 0 10.88 0 0 Z " fill="#5F052B" transform="translate(112,224)"/>
<path d="M0 0 C5.28 0 10.56 0 16 0 C16 10.56 16 21.12 16 32 C10.72 32 5.44 32 0 32 C0 21.44 0 10.88 0 0 Z " fill="#3D0721" transform="translate(176,224)"/>
<path d="M0 0 C5.28 0 10.56 0 16 0 C16 10.56 16 21.12 16 32 C10.72 32 5.44 32 0 32 C0 21.44 0 10.88 0 0 Z " fill="#000000" transform="translate(0,224)"/>
<path d="M0 0 C5.28 0 10.56 0 16 0 C16 10.56 16 21.12 16 32 C10.72 32 5.44 32 0 32 C0 21.44 0 10.88 0 0 Z " fill="#000000" transform="translate(16,192)"/>
<path d="M0 0 C5.28 0 10.56 0 16 0 C16 10.56 16 21.12 16 32 C10.72 32 5.44 32 0 32 C0 21.44 0 10.88 0 0 Z " fill="#FBD5D9" transform="translate(176,144)"/>
<path d="M0 0 C5.28 0 10.56 0 16 0 C16 10.56 16 21.12 16 32 C10.72 32 5.44 32 0 32 C0 21.44 0 10.88 0 0 Z " fill="#000000" transform="translate(16,96)"/>
<path d="M0 0 C5.28 0 10.56 0 16 0 C16 5.28 16 10.56 16 16 C10.72 16 5.44 16 0 16 C0 10.72 0 5.44 0 0 Z " fill="#000000" transform="translate(224,240)"/>
<path d="M0 0 C5.28 0 10.56 0 16 0 C16 5.28 16 10.56 16 16 C10.72 16 5.44 16 0 16 C0 10.72 0 5.44 0 0 Z " fill="#8F0414" transform="translate(160,240)"/>
<path d="M0 0 C5.28 0 10.56 0 16 0 C16 5.28 16 10.56 16 16 C10.72 16 5.44 16 0 16 C0 10.72 0 5.44 0 0 Z " fill="#8F0414" transform="translate(96,240)"/>
<path d="M0 0 C5.28 0 10.56 0 16 0 C16 5.28 16 10.56 16 16 C10.72 16 5.44 16 0 16 C0 10.72 0 5.44 0 0 Z " fill="#5B5942" transform="translate(112,224)"/>
<path d="M0 0 C5.28 0 10.56 0 16 0 C16 5.28 16 10.56 16 16 C10.72 16 5.44 16 0 16 C0 10.72 0 5.44 0 0 Z " fill="#8F0414" transform="translate(80,224)"/>
<path d="M0 0 C5.28 0 10.56 0 16 0 C16 5.28 16 10.56 16 16 C10.72 16 5.44 16 0 16 C0 10.72 0 5.44 0 0 Z " fill="#3D0721" transform="translate(48,224)"/>
<path d="M0 0 C5.28 0 10.56 0 16 0 C16 5.28 16 10.56 16 16 C10.72 16 5.44 16 0 16 C0 10.72 0 5.44 0 0 Z " fill="#3D0721" transform="translate(160,208)"/>
<path d="M0 0 C5.28 0 10.56 0 16 0 C16 5.28 16 10.56 16 16 C10.72 16 5.44 16 0 16 C0 10.72 0 5.44 0 0 Z " fill="#8F0414" transform="translate(80,192)"/>
<path d="M0 0 C5.28 0 10.56 0 16 0 C16 5.28 16 10.56 16 16 C10.72 16 5.44 16 0 16 C0 10.72 0 5.44 0 0 Z " fill="#E5837D" transform="translate(96,176)"/>
<path d="M0 0 C5.28 0 10.56 0 16 0 C16 5.28 16 10.56 16 16 C10.72 16 5.44 16 0 16 C0 10.72 0 5.44 0 0 Z " fill="#577232" transform="translate(160,160)"/>
<path d="M0 0 C5.28 0 10.56 0 16 0 C16 5.28 16 10.56 16 16 C10.72 16 5.44 16 0 16 C0 10.72 0 5.44 0 0 Z " fill="#577232" transform="translate(112,160)"/>
<path d="M0 0 C5.28 0 10.56 0 16 0 C16 5.28 16 10.56 16 16 C10.72 16 5.44 16 0 16 C0 10.72 0 5.44 0 0 Z " fill="#E5837D" transform="translate(80,160)"/>
<path d="M0 0 C5.28 0 10.56 0 16 0 C16 5.28 16 10.56 16 16 C10.72 16 5.44 16 0 16 C0 10.72 0 5.44 0 0 Z " fill="#102A1E" transform="translate(160,144)"/>
<path d="M0 0 C5.28 0 10.56 0 16 0 C16 5.28 16 10.56 16 16 C10.72 16 5.44 16 0 16 C0 10.72 0 5.44 0 0 Z " fill="#102A1E" transform="translate(112,144)"/>
<path d="M0 0 C5.28 0 10.56 0 16 0 C16 5.28 16 10.56 16 16 C10.72 16 5.44 16 0 16 C0 10.72 0 5.44 0 0 Z " fill="#000000" transform="translate(224,96)"/>
<path d="M0 0 C5.28 0 10.56 0 16 0 C16 5.28 16 10.56 16 16 C10.72 16 5.44 16 0 16 C0 10.72 0 5.44 0 0 Z " fill="#000000" transform="translate(208,80)"/>
<path d="M0 0 C5.28 0 10.56 0 16 0 C16 5.28 16 10.56 16 16 C10.72 16 5.44 16 0 16 C0 10.72 0 5.44 0 0 Z " fill="#000000" transform="translate(32,80)"/>
<path d="M0 0 C5.28 0 10.56 0 16 0 C16 5.28 16 10.56 16 16 C10.72 16 5.44 16 0 16 C0 10.72 0 5.44 0 0 Z " fill="#000000" transform="translate(192,64)"/>
<path d="M0 0 C5.28 0 10.56 0 16 0 C16 5.28 16 10.56 16 16 C10.72 16 5.44 16 0 16 C0 10.72 0 5.44 0 0 Z " fill="#000000" transform="translate(48,64)"/>
<path d="M0 0 C5.28 0 10.56 0 16 0 C16 5.28 16 10.56 16 16 C10.72 16 5.44 16 0 16 C0 10.72 0 5.44 0 0 Z " fill="#000000" transform="translate(112,32)"/>
<path d="M0 0 C5.28 0 10.56 0 16 0 C16 5.28 16 10.56 16 16 C10.72 16 5.44 16 0 16 C0 10.72 0 5.44 0 0 Z " fill="#8F0414" transform="translate(96,32)"/>
<path d="M0 0 C5.28 0 10.56 0 16 0 C16 5.28 16 10.56 16 16 C10.72 16 5.44 16 0 16 C0 10.72 0 5.44 0 0 Z " fill="#000000" transform="translate(96,16)"/>
<path d="M0 0 C5.28 0 10.56 0 16 0 C16 5.28 16 10.56 16 16 C10.72 16 5.44 16 0 16 C0 10.72 0 5.44 0 0 Z " fill="#000000" transform="translate(32,16)"/>
</svg>
